{
  "source": "C:\\Users\\Peter\\Desktop\\stuff\\MIUN\\quantitative_research\\video_compression\\videos\\BVI-HD\\BVI-HD_CDVL_videos\\ORIG\\Toys_1920x1080_30fps.mp4",
  "output": "C:\\Users\\Peter\\Desktop\\stuff\\MIUN\\quantitative_research\\video_compression\\compressed_videos\\BVI-HD\\av1\\1\\Toys_1920x1080_30fps_av1.mkv",
  "codec": "av1",
  "ok": "Input #0, mov,mp4,m4a,3gp,3g2,mj2, from 'C:\\Users\\Peter\\Desktop\\stuff\\MIUN\\quantitative_research\\video_compression\\videos\\BVI-HD\\BVI-HD_CDVL_videos\\ORIG\\Toys_1920x1080_30fps.mp4':\n  Metadata:\n    major_brand     : isom\n    minor_version   : 512\n    compatible_brands: isomiso2avc1mp41\n    encoder         : Lavf54.28.101\n  Duration: 00:00:05.00, start: 0.000000, bitrate: 270887 kb/s\n  Stream #0:0[0x1](und): Video: h264 (High 4:4:4 Predictive) (avc1 / 0x31637661), yuv420p(progressive), 1920x1080, 270883 kb/s, 30 fps, 30 tbr, 30 tbn (default)\n    Metadata:\n      handler_name    : VideoHandler\n      vendor_id       : [0][0][0][0]\n[out#0/matroska @ 0000023dc0110c00] Codec AVOption b:a (set bitrate (in bits/s)) has not been used for any stream. The most likely reason is either wrong type (e.g. a video option with no video streams) or that it is a private option of some decoder which was not actually used for any stream.\nStream mapping:\n  Stream #0:0 -> #0:0 (h264 (native) -> av1 (libsvtav1))\nPress [q] to stop, [?] for help\nSvt[info]: -------------------------------------------\nSvt[info]: SVT [version]:\tSVT-AV1 Encoder Lib v3.1.0-19-g6ecfe8ec\nSvt[info]: SVT [build]  :\tGCC 15.2.0\t 64 bit\nSvt[info]: LIB Build date: Aug 17 2025 11:37:13\nSvt[info]: -------------------------------------------\nSvt[info]: Level of Parallelism: 5\nSvt[info]: Number of PPCS 93\nSvt[info]: [asm level on system : up to avx2]\nSvt[info]: [asm level selected : up to avx2]\nSvt[info]: -------------------------------------------\nSvt[info]: SVT [config]: main profile\ttier (auto)\tlevel (auto)\nSvt[info]: SVT [config]: width / height / fps numerator / fps denominator \t\t: 1920 / 1080 / 30 / 1\nSvt[info]: SVT [config]: bit-depth / color format \t\t\t\t\t: 8 / YUV420\nSvt[info]: SVT [config]: preset / tune / pred struct \t\t\t\t\t: 4 / PSNR / random access\nSvt[info]: SVT [config]: gop size / mini-gop size / key-frame type \t\t\t: 161 / 16 / key frame\nSvt[info]: SVT [config]: BRC mode / target bitrate (kbps)\t\t\t\t: VBR / 1000 \nSvt[info]: SVT [config]: AQ mode / Variance Boost \t\t\t\t\t: 2 / 0\nSvt[info]: SVT [config]: sharpness / luminance-based QP bias \t\t\t\t: 0 / 0\nSvt[info]: SVT [config]: QP scale compress strength \t\t\t\t\t: 0\nSvt[info]: -------------------------------------------\nOutput #0, matroska, to 'C:\\Users\\Peter\\Desktop\\stuff\\MIUN\\quantitative_research\\video_compression\\compressed_videos\\BVI-HD\\av1\\1\\Toys_1920x1080_30fps_av1.mkv':\n  Metadata:\n    major_brand     : isom\n    minor_version   : 512\n    compatible_brands: isomiso2avc1mp41\n    encoder         : Lavf62.3.100\n  Stream #0:0(und): Video: av1 (AV01 / 0x31305641), yuv420p(tv, progressive), 1920x1080, q=2-31, 1000 kb/s, 30 fps, 1k tbn (default)\n    Metadata:\n      encoder         : Lavc62.11.100 libsvtav1\n      handler_name    : VideoHandler\n      vendor_id       : [0][0][0][0]\n    Side data:\n      cpb: bitrate max/min/avg: 0/0/1000000 buffer size: 1000000 vbv_delay: N/A\nframe=    0 fps=0.0 q=0.0 size=       0KiB time=N/A bitrate=N/A speed=N/A elapsed=0:00:01.56    \nframe=    0 fps=0.0 q=0.0 size=       0KiB time=N/A bitrate=N/A speed=N/A elapsed=0:00:02.23    \nframe=    0 fps=0.0 q=0.0 size=       0KiB time=N/A bitrate=N/A speed=N/A elapsed=0:00:02.77    \nframe=    0 fps=0.0 q=0.0 size=       0KiB time=N/A bitrate=N/A speed=N/A elapsed=0:00:03.32    \nframe=    0 fps=0.0 q=0.0 size=       0KiB time=N/A bitrate=N/A speed=N/A elapsed=0:00:03.92    \nframe=    0 fps=0.0 q=0.0 size=       0KiB time=N/A bitrate=N/A speed=N/A elapsed=0:00:04.49    \nframe=    0 fps=0.0 q=0.0 size=       0KiB time=N/A bitrate=N/A speed=N/A elapsed=0:00:05.08    \nframe=    1 fps=0.2 q=34.0 size=       1KiB time=00:00:00.00 bitrate=N/A speed=   0x elapsed=0:00:05.61    \nframe=    1 fps=0.2 q=34.0 size=       1KiB time=00:00:00.00 bitrate=N/A speed=   0x elapsed=0:00:06.18    \nframe=    1 fps=0.1 q=34.0 size=       1KiB time=00:00:00.00 bitrate=N/A speed=   0x elapsed=0:00:06.77    \nframe=    1 fps=0.1 q=34.0 size=       1KiB time=00:00:00.00 bitrate=N/A speed=   0x elapsed=0:00:07.36    \nframe=    3 fps=0.4 q=55.0 size=       1KiB time=00:00:00.06 bitrate=  85.6kbits/s speed=0.00841x elapsed=0:00:07.92    \nframe=    8 fps=0.9 q=56.0 size=       1KiB time=00:00:00.23 bitrate=  24.4kbits/s speed=0.0275x elapsed=0:00:08.49    \nframe=   11 fps=1.2 q=53.0 size=       1KiB time=00:00:00.33 bitrate=  17.1kbits/s speed=0.0364x elapsed=0:00:09.16    \nframe=   16 fps=1.6 q=55.0 size=       1KiB time=00:00:00.50 bitrate=  11.4kbits/s speed=0.0512x elapsed=0:00:09.77    \nframe=   21 fps=2.0 q=53.0 size=       1KiB time=00:00:00.63 bitrate=   9.0kbits/s speed=0.0614x elapsed=0:00:10.31    \nframe=   25 fps=2.3 q=49.0 size=       1KiB time=00:00:00.80 bitrate=   7.1kbits/s speed=0.0732x elapsed=0:00:10.92    \nframe=   31 fps=2.7 q=55.0 size=       1KiB time=00:00:00.96 bitrate=   5.9kbits/s speed=0.084x elapsed=0:00:11.51    \nframe=   36 fps=3.0 q=56.0 size=       1KiB time=00:00:01.13 bitrate=   5.0kbits/s speed=0.0936x elapsed=0:00:12.11    \nframe=   40 fps=3.1 q=56.0 size=       1KiB time=00:00:01.30 bitrate=   4.4kbits/s speed=0.102x elapsed=0:00:12.74    \nframe=   46 fps=3.5 q=56.0 size=       1KiB time=00:00:01.46 bitrate=   3.9kbits/s speed=0.11x elapsed=0:00:13.30    \nframe=   50 fps=3.6 q=57.0 size=       1KiB time=00:00:01.63 bitrate=   3.5kbits/s speed=0.118x elapsed=0:00:13.87    \nframe=   57 fps=3.9 q=50.0 size=       1KiB time=00:00:01.86 bitrate=   3.1kbits/s speed=0.129x elapsed=0:00:14.44    \nframe=   59 fps=3.9 q=56.0 size=       1KiB time=00:00:01.93 bitrate=   3.0kbits/s speed=0.129x elapsed=0:00:15.02    \nframe=   65 fps=4.2 q=42.0 size=       1KiB time=00:00:02.13 bitrate=   2.7kbits/s speed=0.137x elapsed=0:00:15.55    \nframe=   71 fps=4.4 q=56.0 size=       1KiB time=00:00:02.26 bitrate=   2.5kbits/s speed=0.141x elapsed=0:00:16.11    \nframe=   73 fps=4.4 q=50.0 size=       1KiB time=00:00:02.40 bitrate=   2.4kbits/s speed=0.144x elapsed=0:00:16.68    \nframe=   81 fps=4.7 q=43.0 size=       1KiB time=00:00:02.66 bitrate=   2.1kbits/s speed=0.155x elapsed=0:00:17.21    \nframe=   87 fps=4.9 q=57.0 size=       1KiB time=00:00:02.86 bitrate=   2.0kbits/s speed=0.161x elapsed=0:00:17.76    \nframe=   91 fps=5.0 q=55.0 size=       1KiB time=00:00:03.00 bitrate=   1.9kbits/s speed=0.164x elapsed=0:00:18.30    \nframe=   97 fps=5.1 q=44.0 size=       1KiB time=00:00:03.20 bitrate=   1.8kbits/s speed=0.169x elapsed=0:00:18.88    \nframe=  105 fps=5.4 q=51.0 size=       1KiB time=00:00:03.46 bitrate=   1.6kbits/s speed=0.178x elapsed=0:00:19.47    \nframe=  109 fps=5.4 q=52.0 size=       1KiB time=00:00:03.60 bitrate=   1.6kbits/s speed=0.18x elapsed=0:00:20.02    \nframe=  113 fps=5.5 q=44.0 size=       1KiB time=00:00:03.73 bitrate=   1.5kbits/s speed=0.182x elapsed=0:00:20.54    \nframe=  121 fps=5.7 q=51.0 size=       1KiB time=00:00:04.00 bitrate=   1.4kbits/s speed=0.19x elapsed=0:00:21.10    \nframe=  123 fps=5.7 q=54.0 size=       1KiB time=00:00:04.06 bitrate=   1.4kbits/s speed=0.188x elapsed=0:00:21.64    \nframe=  129 fps=5.8 q=44.0 size=       1KiB time=00:00:04.26 bitrate=   1.3kbits/s speed=0.192x elapsed=0:00:22.17    \nframe=  137 fps=6.0 q=52.0 size=       1KiB time=00:00:04.53 bitrate=   1.3kbits/s speed= 0.2x elapsed=0:00:22.71    \n[out#0/matroska @ 0000023dc0110c00] video:636KiB audio:0KiB subtitle:0KiB other streams:0KiB global headers:0KiB muxing overhead: 0.221443%\nframe=  150 fps=6.5 q=57.0 Lsize=     638KiB time=00:00:04.96 bitrate=1051.9kbits/s speed=0.214x elapsed=0:00:23.24    \n",
  "seconds": 23.824416875839233,
  "probe_out": {}
}